HIERARCHY
ROOT mixamorig:Hips
{
	OFFSET 0.000000 201.639420 0.000000
	CHANNELS 6 Xposition Yposition Zposition Xrotation Yrotation Zrotation
	JOINT mixamorig:Spine
	{
		OFFSET 0.006200 19.524994 -2.481800
		CHANNELS 3 Xrotation Yrotation Zrotation
		JOINT mixamorig:Spine1
		{
			OFFSET -0.000900 22.835007 -2.825400
			CHANNELS 3 Xrotation Yrotation Zrotation
			JOINT mixamorig:Spine2
			{
				OFFSET -0.020600 26.552490 -3.193300
				CHANNELS 3 Xrotation Yrotation Zrotation
				JOINT mixamorig:Neck
				{
					OFFSET -0.060000 30.701813 1.352200
					CHANNELS 3 Xrotation Yrotation Zrotation
					JOINT mixamorig:Head
					{
						OFFSET -0.087200 22.547607 3.670900
						CHANNELS 3 Xrotation Yrotation Zrotation
						JOINT mixamorig:HeadTop_End
						{
							OFFSET -0.830600 40.355194 7.893500
							CHANNELS 3 Xrotation Yrotation Zrotation
							End Site
							{
								OFFSET 0.000000 30.592346 0.000000
							}
						}
						JOINT mixamorig:RightEye
						{
							OFFSET -6.302100 18.118591 16.197100
							CHANNELS 3 Xrotation Yrotation Zrotation
							End Site
							{
								OFFSET 0.000000 30.592346 0.000000
							}
						}
						JOINT mixamorig:LeftEye
						{
							OFFSET 6.741500 18.382690 16.401899
							CHANNELS 3 Xrotation Yrotation Zrotation
							End Site
							{
								OFFSET 0.000000 30.592346 0.000000
							}
						}
					}
				}
				JOINT mixamorig:LeftShoulder
				{
					OFFSET 11.924900 18.230499 1.425400
					CHANNELS 3 Xrotation Yrotation Zrotation
					JOINT mixamorig:LeftArm
					{
						OFFSET 25.435989 -0.697632 -5.229300
						CHANNELS 3 Xrotation Yrotation Zrotation
						JOINT mixamorig:LeftForeArm
						{
							OFFSET 54.684776 0.000000 0.000000
							CHANNELS 3 Xrotation Yrotation Zrotation
							JOINT mixamorig:LeftHand
							{
								OFFSET 55.098175 0.000000 0.000000
								CHANNELS 3 Xrotation Yrotation Zrotation
								JOINT mixamorig:LeftHandMiddle1
								{
									OFFSET 23.369751 0.000000 0.000000
									CHANNELS 3 Xrotation Yrotation Zrotation
									JOINT mixamorig:LeftHandMiddle2
									{
										OFFSET 6.378677 0.000000 0.000000
										CHANNELS 3 Xrotation Yrotation Zrotation
										JOINT mixamorig:LeftHandMiddle3
										{
											OFFSET 6.148331 0.000000 0.000000
											CHANNELS 3 Xrotation Yrotation Zrotation
											JOINT mixamorig:LeftHandMiddle4
											{
												OFFSET 6.582504 0.000000 0.000000
												CHANNELS 3 Xrotation Yrotation Zrotation
												End Site
												{
													OFFSET -1.168900 6.395691 1.028606
												}
											}
										}
									}
								}
								JOINT mixamorig:LeftHandThumb1
								{
									OFFSET 7.235672 -3.848206 5.434273
									CHANNELS 3 Xrotation Yrotation Zrotation
									JOINT mixamorig:LeftHandThumb2
									{
										OFFSET 6.568451 -3.792297 3.792300
										CHANNELS 3 Xrotation Yrotation Zrotation
										JOINT mixamorig:LeftHandThumb3
										{
											OFFSET 6.063080 -3.500519 3.500518
											CHANNELS 3 Xrotation Yrotation Zrotation
											JOINT mixamorig:LeftHandThumb4
											{
												OFFSET 4.793182 -2.767334 2.767349
												CHANNELS 3 Xrotation Yrotation Zrotation
												End Site
												{
													OFFSET 0.101639 6.054260 1.275483
												}
											}
										}
									}
								}
								JOINT mixamorig:LeftHandIndex1
								{
									OFFSET 23.101074 -0.309540 4.992809
									CHANNELS 3 Xrotation Yrotation Zrotation
									JOINT mixamorig:LeftHandIndex2
									{
										OFFSET 6.226883 0.000000 0.000000
										CHANNELS 3 Xrotation Yrotation Zrotation
										JOINT mixamorig:LeftHandIndex3
										{
											OFFSET 6.094330 0.000000 0.000000
											CHANNELS 3 Xrotation Yrotation Zrotation
											JOINT mixamorig:LeftHandIndex4
											{
												OFFSET 5.482605 0.000000 0.000000
												CHANNELS 3 Xrotation Yrotation Zrotation
												End Site
												{
													OFFSET -1.427902 5.233032 0.797164
												}
											}
										}
									}
								}
								JOINT mixamorig:LeftHandRing1
								{
									OFFSET 22.299240 0.021149 -3.964172
									CHANNELS 3 Xrotation Yrotation Zrotation
									JOINT mixamorig:LeftHandRing2
									{
										OFFSET 6.321869 0.000000 0.000000
										CHANNELS 3 Xrotation Yrotation Zrotation
										JOINT mixamorig:LeftHandRing3
										{
											OFFSET 5.899796 0.000000 0.000000
											CHANNELS 3 Xrotation Yrotation Zrotation
											JOINT mixamorig:LeftHandRing4
											{
												OFFSET 6.517899 0.000000 0.000000
												CHANNELS 3 Xrotation Yrotation Zrotation
												End Site
												{
													OFFSET -1.637299 6.232208 0.980890
												}
											}
										}
									}
								}
								JOINT mixamorig:LeftHandPinky1
								{
									OFFSET 20.463791 -0.302338 -8.562233
									CHANNELS 3 Xrotation Yrotation Zrotation
									JOINT mixamorig:LeftHandPinky2
									{
										OFFSET 6.908646 0.000000 0.000000
										CHANNELS 3 Xrotation Yrotation Zrotation
										JOINT mixamorig:LeftHandPinky3
										{
											OFFSET 4.622849 0.000000 0.000000
											CHANNELS 3 Xrotation Yrotation Zrotation
											JOINT mixamorig:LeftHandPinky4
											{
												OFFSET 5.216080 0.000000 0.000000
												CHANNELS 3 Xrotation Yrotation Zrotation
												End Site
												{
													OFFSET -0.606308 5.116241 0.814926
												}
											}
										}
									}
								}
							}
						}
					}
				}
				JOINT mixamorig:RightShoulder
				{
					OFFSET -12.001300 18.284088 1.348900
					CHANNELS 3 Xrotation Yrotation Zrotation
					JOINT mixamorig:RightArm
					{
						OFFSET -25.308500 -0.751312 -5.164599
						CHANNELS 3 Xrotation Yrotation Zrotation
						JOINT mixamorig:RightForeArm
						{
							OFFSET -54.684429 0.000000 0.000000
							CHANNELS 3 Xrotation Yrotation Zrotation
							JOINT mixamorig:RightHand
							{
								OFFSET -55.150291 0.000000 0.000000
								CHANNELS 3 Xrotation Yrotation Zrotation
								JOINT mixamorig:RightHandMiddle1
								{
									OFFSET -23.317566 0.000000 0.000000
									CHANNELS 3 Xrotation Yrotation Zrotation
									JOINT mixamorig:RightHandMiddle2
									{
										OFFSET -6.378403 0.000000 0.000000
										CHANNELS 3 Xrotation Yrotation Zrotation
										JOINT mixamorig:RightHandMiddle3
										{
											OFFSET -6.148193 0.000000 0.000000
											CHANNELS 3 Xrotation Yrotation Zrotation
											JOINT mixamorig:RightHandMiddle4
											{
												OFFSET -6.583389 0.000000 0.000000
												CHANNELS 3 Xrotation Yrotation Zrotation
												End Site
												{
													OFFSET 1.171692 6.395905 1.029786
												}
											}
										}
									}
								}
								JOINT mixamorig:RightHandThumb1
								{
									OFFSET -7.190521 -3.860474 5.435846
									CHANNELS 3 Xrotation Yrotation Zrotation
									JOINT mixamorig:RightHandThumb2
									{
										OFFSET -6.567429 -3.791718 3.791708
										CHANNELS 3 Xrotation Yrotation Zrotation
										JOINT mixamorig:RightHandThumb3
										{
											OFFSET -6.062469 -3.500153 3.500166
											CHANNELS 3 Xrotation Yrotation Zrotation
											JOINT mixamorig:RightHandThumb4
											{
												OFFSET -4.792618 -2.767029 2.767022
												CHANNELS 3 Xrotation Yrotation Zrotation
												End Site
												{
													OFFSET -0.100327 6.053253 1.276754
												}
											}
										}
									}
								}
								JOINT mixamorig:RightHandIndex1
								{
									OFFSET -23.048981 -0.310791 4.992554
									CHANNELS 3 Xrotation Yrotation Zrotation
									JOINT mixamorig:RightHandIndex2
									{
										OFFSET -6.227539 0.000000 0.000000
										CHANNELS 3 Xrotation Yrotation Zrotation
										JOINT mixamorig:RightHandIndex3
										{
											OFFSET -6.095047 0.000000 0.000000
											CHANNELS 3 Xrotation Yrotation Zrotation
											JOINT mixamorig:RightHandIndex4
											{
												OFFSET -5.484772 0.000000 0.000000
												CHANNELS 3 Xrotation Yrotation Zrotation
												End Site
												{
													OFFSET 1.420593 5.237305 0.797056
												}
											}
										}
									}
								}
								JOINT mixamorig:RightHandRing1
								{
									OFFSET -22.246323 0.020569 -3.963762
									CHANNELS 3 Xrotation Yrotation Zrotation
									JOINT mixamorig:RightHandRing2
									{
										OFFSET -6.322128 0.000000 0.000000
										CHANNELS 3 Xrotation Yrotation Zrotation
										JOINT mixamorig:RightHandRing3
										{
											OFFSET -5.900024 0.000000 0.000000
											CHANNELS 3 Xrotation Yrotation Zrotation
											JOINT mixamorig:RightHandRing4
											{
												OFFSET -6.518356 0.000000 0.000000
												CHANNELS 3 Xrotation Yrotation Zrotation
												End Site
												{
													OFFSET 1.636398 6.232697 0.982186
												}
											}
										}
									}
								}
								JOINT mixamorig:RightHandPinky1
								{
									OFFSET -20.411011 -0.303314 -8.561701
									CHANNELS 3 Xrotation Yrotation Zrotation
									JOINT mixamorig:RightHandPinky2
									{
										OFFSET -6.907349 0.000000 0.000000
										CHANNELS 3 Xrotation Yrotation Zrotation
										JOINT mixamorig:RightHandPinky3
										{
											OFFSET -4.623840 0.000000 0.000000
											CHANNELS 3 Xrotation Yrotation Zrotation
											JOINT mixamorig:RightHandPinky4
											{
												OFFSET -5.218353 0.000000 0.000000
												CHANNELS 3 Xrotation Yrotation Zrotation
												End Site
												{
													OFFSET 0.602097 5.118835 0.816273
												}
											}
										}
									}
								}
							}
						}
					}
				}
			}
		}
	}
	JOINT mixamorig:LeftUpLeg
	{
		OFFSET 18.168400 -13.561905 -0.039000
		CHANNELS 3 Xrotation Yrotation Zrotation
		JOINT mixamorig:LeftLeg
		{
			OFFSET 0.577358 -80.825211 -3.695000
			CHANNELS 3 Xrotation Yrotation Zrotation
			JOINT mixamorig:LeftFoot
			{
				OFFSET -0.577356 -83.370262 -6.520700
				CHANNELS 3 Xrotation Yrotation Zrotation
				JOINT mixamorig:LeftToeBase
				{
					OFFSET 0.750401 -20.798306 25.135401
					CHANNELS 3 Xrotation Yrotation Zrotation
					JOINT mixamorig:LeftToe_End
					{
						OFFSET -0.000500 0.001200 19.917799
						CHANNELS 3 Xrotation Yrotation Zrotation
						End Site
						{
							OFFSET 0.000000 19.917805 0.000000
						}
					}
				}
			}
		}
	}
	JOINT mixamorig:RightUpLeg
	{
		OFFSET -18.162500 -13.585098 -0.041000
		CHANNELS 3 Xrotation Yrotation Zrotation
		JOINT mixamorig:RightLeg
		{
			OFFSET -0.595024 -80.945297 -3.631900
			CHANNELS 3 Xrotation Yrotation Zrotation
			JOINT mixamorig:RightFoot
			{
				OFFSET 0.595024 -83.218193 -6.561200
				CHANNELS 3 Xrotation Yrotation Zrotation
				JOINT mixamorig:RightToeBase
				{
					OFFSET -0.753601 -20.807106 25.115000
					CHANNELS 3 Xrotation Yrotation Zrotation
					JOINT mixamorig:RightToe_End
					{
						OFFSET 0.000299 0.001700 19.918200
						CHANNELS 3 Xrotation Yrotation Zrotation
						End Site
						{
							OFFSET 0.000000 19.918203 0.000000
						}
					}
				}
			}
		}
	}
}
MOTION
Frames: 6
Frame Time: 0.033333
17.024475 178.199219 -12.102215 34.923147 -52.480640 23.850561 10.573608 -0.454422 -1.696867 20.839937 -0.085622 -1.393169 20.839274 -0.232084 -1.360197 -2.966657 4.943835 -13.032640 -0.798604 9.001834 -18.322413 0.000001 -0.000000 0.000001 0.000001 -0.000000 0.000001 0.000001 -0.000000 0.000001 -0.001328 3.394140 0.180511 -44.522315 32.209751 -47.799576 -0.000022 -123.250927 -0.000020 -23.596654 2.873374 -2.391710 0.092215 1.125461 -9.368812 0.130756 1.338166 -11.161013 0.138198 1.375316 -11.475121 -0.000003 0.000003 0.000000 -8.267830 1.282173 18.901206 3.939049 7.948712 0.746816 -0.579472 1.575002 2.538726 0.000000 0.000001 0.000001 0.120543 1.285276 -10.714319 0.120527 1.285275 -10.714356 0.120533 1.285269 -10.714335 -0.000003 0.000003 0.000001 0.110022 1.228384 -10.234707 0.154970 1.455510 -12.154501 0.164255 1.497939 -12.514484 0.000001 -0.000002 0.000001 1.117213 5.553199 -12.982234 0.185512 -2.449920 -13.931546 0.189191 1.606067 -13.434682 -0.000002 -0.000001 -0.000000 -0.241913 -4.997231 -1.557361 -41.503853 29.155865 80.060773 -0.000601 98.294407 0.000571 4.083970 22.256356 -7.925509 0.033497 -0.683072 5.614149 0.047216 -0.810606 6.666945 0.050043 -0.834467 6.864347 0.000003 -0.000000 0.000001 2.272865 -2.049739 -26.561024 4.637200 -8.634124 -0.225410 -1.273758 0.137315 -2.094875 0.000001 0.000001 -0.000004 0.043264 -0.776126 6.382128 0.043281 -0.776123 6.382148 0.043271 -0.776114 6.382147 0.000001 0.000001 -0.000003 0.040179 -0.748021 6.150122 0.056661 -0.887598 7.303467 0.060044 -0.913683 7.519720 -0.000000 0.000001 -0.000001 0.069613 -0.983459 8.097405 0.069614 -0.983434 8.097443 0.069610 -0.983421 8.097423 0.000000 0.000001 0.000001 -57.968621 0.646376 30.523514 38.677189 -0.808570 -0.386447 1.084164 0.763389 -18.506997 0.000002 0.000017 -0.000002 0.000000 0.000000 -0.000000 -56.404983 -4.531719 -17.258136 45.803501 8.465164 4.926641 -9.863378 -1.321878 9.769754 -0.000018 0.000036 0.000007 -0.000000 -0.000000 -0.000000 
16.122414 178.194946 -11.400688 30.817909 -53.881696 20.122772 10.459829 -0.505323 -2.051398 20.649863 -0.193936 -1.737849 20.648265 -0.358759 -1.701465 -1.327364 4.744904 -11.483662 -1.015921 11.394160 -15.738238 -0.000001 0.000000 -0.000001 -0.000001 0.000000 -0.000001 -0.000001 0.000000 -0.000001 -0.017462 3.488541 0.307031 -45.309880 34.279630 -45.658582 -0.000005 -124.535071 -0.000001 -24.641036 3.060067 -2.244189 0.092216 1.125458 -9.368812 0.130750 1.338167 -11.161017 0.138196 1.375314 -11.475121 -0.000000 -0.000000 0.000000 -8.267831 1.282173 18.901210 3.939048 7.948713 0.746815 -0.579475 1.575001 2.538727 -0.000001 -0.000000 0.000002 0.120544 1.285277 -10.714318 0.120523 1.285272 -10.714357 0.120530 1.285266 -10.714334 -0.000002 -0.000002 -0.000003 0.110020 1.228381 -10.234707 0.154966 1.455513 -12.154494 0.164256 1.497938 -12.514484 0.000001 -0.000002 -0.000001 1.117212 5.553197 -12.982236 0.185511 -2.449920 -13.931549 0.189193 1.606069 -13.434681 -0.000001 0.000000 -0.000001 -0.389501 -5.970143 -2.184610 -44.439376 34.156847 82.308684 0.001314 97.324622 -0.001299 6.365411 23.091995 -8.897824 0.033494 -0.683072 5.614148 0.047214 -0.810605 6.666945 0.050044 -0.834466 6.864349 0.000001 0.000000 0.000002 2.272862 -2.049735 -26.561030 4.637199 -8.634126 -0.225403 -1.273758 0.137314 -2.094867 0.000000 -0.000001 -0.000007 0.043260 -0.776127 6.382123 0.043279 -0.776124 6.382151 0.043273 -0.776114 6.382144 0.000001 -0.000000 -0.000002 0.040176 -0.748022 6.150123 0.056659 -0.887599 7.303471 0.060044 -0.913685 7.519716 0.000001 0.000000 0.000000 0.069610 -0.983461 8.097404 0.069613 -0.983434 8.097444 0.069609 -0.983421 8.097421 0.000002 -0.000001 0.000001 -55.654181 1.237632 31.494996 39.890135 -2.050258 0.041706 -0.128074 0.955662 -18.656230 0.000004 -0.000005 0.000006 -0.000000 0.000000 -0.000000 -53.294351 -5.209782 -16.867687 46.287465 8.825305 4.694740 -10.663399 -1.391582 9.721885 -0.000018 0.000036 0.000007 -0.000000 0.000000 -0.000000 
15.157675 178.324646 -10.454494 25.908386 -54.651663 15.809682 10.151384 -0.695940 -2.327352 20.062579 -0.629268 -1.964664 20.057052 -0.804066 -1.928674 -0.076288 4.984852 -10.698971 -1.077574 14.233745 -13.237116 -0.000000 0.000001 -0.000002 -0.000000 0.000001 -0.000002 -0.000000 0.000001 -0.000002 0.005104 3.396023 0.072808 -45.053977 35.503723 -43.256766 -0.000002 -125.210195 -0.000008 -24.695186 3.002276 -2.058670 0.092217 1.125457 -9.368810 0.130752 1.338168 -11.161016 0.138199 1.375314 -11.475123 -0.000001 0.000001 -0.000003 -8.267829 1.282173 18.901210 3.939048 7.948712 0.746816 -0.579472 1.575001 2.538724 -0.000002 -0.000000 0.000001 0.120547 1.285275 -10.714319 0.120520 1.285274 -10.714360 0.120532 1.285267 -10.714335 -0.000000 0.000002 0.000002 0.110023 1.228379 -10.234708 0.154969 1.455510 -12.154501 0.164255 1.497937 -12.514483 -0.000000 -0.000000 -0.000001 1.117214 5.553198 -12.982234 0.185515 -2.449920 -13.931544 0.189193 1.606065 -13.434682 -0.000002 0.000001 0.000001 -0.323071 -5.619898 -1.807874 -46.313105 38.397104 83.043332 -0.000265 96.975292 0.000225 8.604872 22.986472 -8.893915 0.033495 -0.683074 5.614150 0.047212 -0.810605 6.666940 0.050047 -0.834466 6.864347 0.000005 -0.000000 0.000001 2.272868 -2.049739 -26.561030 4.637201 -8.634122 -0.225408 -1.273760 0.137315 -2.094869 -0.000001 -0.000000 -0.000003 0.043265 -0.776127 6.382122 0.043279 -0.776124 6.382153 0.043271 -0.776114 6.382145 -0.000000 -0.000001 0.000001 0.040179 -0.748021 6.150120 0.056657 -0.887599 7.303467 0.060045 -0.913683 7.519717 -0.000000 0.000000 0.000001 0.069614 -0.983459 8.097404 0.069612 -0.983435 8.097445 0.069607 -0.983422 8.097423 0.000000 -0.000000 -0.000000 -53.020576 1.837782 31.856091 40.789360 -3.369886 0.649540 -1.299028 1.123401 -18.785390 -0.000004 -0.000002 0.000001 0.000000 -0.000002 -0.000000 -49.807348 -5.974051 -16.928912 46.623793 9.044808 4.422810 -11.538210 -1.478370 9.834605 -0.000018 0.000036 0.000007 0.000000 0.000000 0.000000 
14.286968 178.791687 -9.310585 21.305614 -54.395637 12.198168 9.820846 -0.830260 -2.377070 19.407081 -0.968361 -1.906362 19.398297 -1.141926 -1.873096 -0.164938 5.459302 -10.651906 -1.431892 16.494926 -11.968771 0.000000 -0.000000 -0.000001 0.000000 -0.000000 -0.000001 0.000000 -0.000000 -0.000001 0.028650 3.320668 -0.200326 -43.713364 35.479503 -42.715607 0.000027 -124.778813 0.000027 -23.904026 2.801424 -2.002444 0.092217 1.125457 -9.368813 0.130752 1.338170 -11.161017 0.138200 1.375314 -11.475125 0.000001 0.000002 -0.000000 -8.267831 1.282172 18.901203 3.939042 7.948713 0.746817 -0.579472 1.574999 2.538726 -0.000002 0.000000 -0.000000 0.120546 1.285275 -10.714325 0.120520 1.285274 -10.714359 0.120532 1.285269 -10.714335 -0.000002 -0.000002 -0.000003 0.110022 1.228379 -10.234713 0.154967 1.455510 -12.154504 0.164259 1.497939 -12.514482 0.000000 -0.000001 -0.000001 1.117216 5.553195 -12.982237 0.185515 -2.449923 -13.931552 0.189193 1.606069 -13.434686 -0.000001 0.000001 -0.000001 -0.306807 -5.561642 -1.676453 -47.897207 41.304271 83.400298 -0.000476 97.037392 0.000425 10.434628 22.374653 -7.931059 0.033501 -0.683071 5.614148 0.047212 -0.810606 6.666945 0.050046 -0.834466 6.864348 0.000003 0.000000 0.000001 2.272868 -2.049737 -26.561023 4.637202 -8.634125 -0.225412 -1.273757 0.137314 -2.094870 0.000003 0.000000 0.000003 0.043265 -0.776126 6.382122 0.043275 -0.776124 6.382149 0.043272 -0.776115 6.382148 0.000001 -0.000001 -0.000001 0.040181 -0.748020 6.150120 0.056660 -0.887599 7.303470 0.060041 -0.913685 7.519719 -0.000001 0.000001 0.000001 0.069614 -0.983461 8.097404 0.069609 -0.983435 8.097445 0.069607 -0.983421 8.097422 -0.000001 0.000000 -0.000001 -50.338938 2.477570 31.125520 40.829375 -4.392959 1.199677 -2.054801 1.212264 -18.759647 -0.000030 0.000020 0.000006 -0.000000 -0.000003 -0.000000 -46.497705 -6.690159 -17.762385 46.488279 9.002612 4.091863 -12.265502 -1.451971 10.224233 -0.000018 0.000038 0.000007 -0.000000 0.000000 0.000000 
13.444786 179.764130 -7.496407 17.306589 -53.725387 9.967022 9.297821 -0.702811 -2.262265 18.366597 -0.794163 -1.717649 18.359499 -0.952504 -1.688342 -1.277098 5.940583 -10.828567 -2.369781 18.223489 -12.160828 -0.000002 0.000000 -0.000001 -0.000002 0.000000 -0.000001 -0.000002 0.000000 -0.000001 0.039897 3.259711 -0.274499 -41.829274 33.929651 -44.150951 -0.000008 -122.732011 -0.000012 -22.371627 2.449202 -1.891434 0.092218 1.125458 -9.368811 0.130756 1.338167 -11.161022 0.138194 1.375312 -11.475123 -0.000000 0.000001 -0.000003 -8.267826 1.282173 18.901208 3.939048 7.948714 0.746812 -0.579475 1.575003 2.538725 0.000003 0.000000 0.000002 0.120545 1.285277 -10.714321 0.120519 1.285273 -10.714363 0.120533 1.285268 -10.714332 -0.000001 0.000001 -0.000002 0.110026 1.228383 -10.234712 0.154967 1.455515 -12.154499 0.164256 1.497936 -12.514489 -0.000001 0.000001 -0.000003 1.117215 5.553199 -12.982236 0.185510 -2.449922 -13.931550 0.189193 1.606065 -13.434682 -0.000001 -0.000002 -0.000000 -0.406192 -6.273179 -2.012009 -50.026983 42.901118 84.088078 0.000842 97.004068 -0.000848 11.523730 22.023223 -6.417887 0.033495 -0.683072 5.614147 0.047213 -0.810606 6.666944 0.050047 -0.834465 6.864347 0.000003 0.000000 -0.000001 2.272859 -2.049740 -26.561028 4.637197 -8.634124 -0.225411 -1.273756 0.137315 -2.094870 0.000001 0.000001 0.000001 0.043263 -0.776128 6.382122 0.043279 -0.776123 6.382152 0.043269 -0.776115 6.382147 0.000003 0.000001 -0.000000 0.040180 -0.748021 6.150118 0.056655 -0.887600 7.303471 0.060045 -0.913684 7.519721 0.000001 0.000001 0.000000 0.069610 -0.983460 8.097404 0.069613 -0.983435 8.097444 0.069609 -0.983421 8.097421 0.000001 0.000001 0.000001 -47.124064 3.531080 29.391492 40.005101 -4.983642 1.287086 -2.655386 1.274807 -18.384487 -0.000035 -0.000002 -0.000002 -0.000000 -0.000002 -0.000000 -43.264508 -7.270365 -19.430338 45.636404 8.997891 3.418649 -12.681648 -1.508394 11.028342 -0.000018 0.000034 0.000007 0.000000 0.000000 -0.000000 
12.718182 180.870010 -5.449717 14.181261 -53.287503 8.940938 8.687434 -0.325574 -2.136237 17.164750 -0.128636 -1.600648 17.163420 -0.266131 -1.574633 -2.422502 6.318962 -11.120711 -3.449019 19.485372 -13.322981 0.000001 -0.000000 -0.000001 0.000001 -0.000000 -0.000001 0.000001 -0.000000 -0.000001 0.033931 3.256129 -0.138885 -40.072525 31.678137 -46.132822 -0.000008 -120.129435 -0.000008 -20.676041 2.041043 -1.585846 0.092215 1.125458 -9.368807 0.130751 1.338167 -11.161017 0.138200 1.375316 -11.475118 0.000002 -0.000000 -0.000001 -8.267830 1.282172 18.901212 3.939045 7.948712 0.746814 -0.579474 1.575001 2.538725 0.000003 -0.000000 -0.000001 0.120542 1.285279 -10.714322 0.120516 1.285271 -10.714362 0.120534 1.285267 -10.714341 -0.000002 -0.000001 -0.000001 0.110023 1.228381 -10.234709 0.154968 1.455512 -12.154503 0.164253 1.497937 -12.514484 0.000000 0.000001 0.000003 1.117214 5.553195 -12.982234 0.185513 -2.449921 -13.931547 0.189185 1.606064 -13.434686 -0.000003 -0.000000 0.000001 -0.519014 -7.074260 -2.346386 -52.557305 43.529342 85.126505 -0.001333 96.505464 0.001271 12.352552 22.065879 -4.753352 0.033495 -0.683071 5.614147 0.047220 -0.810606 6.666945 0.050051 -0.834465 6.864346 0.000000 -0.000001 -0.000004 2.272863 -2.049737 -26.561026 4.637199 -8.634128 -0.225409 -1.273760 0.137312 -2.094875 -0.000002 -0.000003 -0.000002 0.043265 -0.776126 6.382121 0.043285 -0.776123 6.382151 0.043271 -0.776114 6.382144 0.000001 -0.000002 -0.000001 0.040181 -0.748018 6.150123 0.056656 -0.887597 7.303466 0.060044 -0.913683 7.519718 -0.000003 -0.000000 -0.000002 0.069615 -0.983460 8.097404 0.069612 -0.983436 8.097444 0.069609 -0.983422 8.097422 0.000003 -0.000001 -0.000000 -43.849592 4.858762 27.492720 38.806755 -5.217067 0.904352 -3.135785 1.329238 -17.757389 -0.000022 -0.000003 -0.000003 0.000000 -0.000000 -0.000000 -40.469059 -7.578847 -21.278080 44.427877 9.051473 2.515777 -12.821460 -1.443880 12.054784 -0.000018 0.000038 0.000007 -0.000000 0.000000 -0.000000 
